<svg xmlns="http://www.w3.org/2000/svg" viewBox="0 0 350.38 165.26"><g id="圖層_2" data-name="圖層 2"><g id="レイヤー_1" data-name="レイヤー 1"><path d="M71.79,147a4.15,4.15,0,0,1,.78.14c.45.18.68.34.68.48a.8.8,0,0,1-.08.33.55.55,0,0,1-.33.21c-1.72.27-3.52.49-5.38.67l.1.06c.58.22.86.42.86.62a2.34,2.34,0,0,1,0,.3,7.34,7.34,0,0,0-.24,1.13c.71-.15,1.36-.31,1.94-.49a1.22,1.22,0,0,1,.46-.08,4.28,4.28,0,0,1,.78.14c.46.18.7.34.7.48a.56.56,0,0,1-.11.32.53.53,0,0,1-.33.22c-1.14.18-2.33.34-3.55.48-.07.58-.13,1.24-.19,2,1.17-.16,2.35-.36,3.56-.6a6.4,6.4,0,0,1,1.13-.1,3,3,0,0,1,1.21.29.87.87,0,0,1,.57.76c0,.21-.1.32-.3.32q-3.69,0-6.9.3a2.2,2.2,0,0,1,.68.27.7.7,0,0,1,.54.7.84.84,0,0,1-.22.37,2.8,2.8,0,0,0-.4,1l-.06.21q4.53-.51,7.22-1l.51,0a4.72,4.72,0,0,1,1.73.4c.59.36.89.72.89,1.08s-.21.43-.62.43-1.29,0-2.43-.11c-.7-.07-1.29-.11-1.77-.11-2.21,0-4.13,0-5.74.14a27.29,27.29,0,0,0,3.26,2.67,12.4,12.4,0,0,0,2.39,1.34,29.93,29.93,0,0,0,5.85,2.05c0,.23-.05.37-.16.41-1.19.08-2.42.13-3.72.13a5.36,5.36,0,0,1-2.53-.32,41.51,41.51,0,0,1-5.44-5.42,11.93,11.93,0,0,1-1,1.89,7.91,7.91,0,0,1-2.56,2.64,11.52,11.52,0,0,1-2.48,1.08,9.22,9.22,0,0,1-2.64.35c-.15,0-.22,0-.22-.11a14.39,14.39,0,0,0,2.43-1.08,11.31,11.31,0,0,0,2.91-2,8.12,8.12,0,0,0,2.29-3c0-.16.11-.32.16-.48l-.78,0a41.76,41.76,0,0,0-5.12.78,3.25,3.25,0,0,1-1.05.19,2.84,2.84,0,0,1-1.38-.43c-.41-.27-.61-.45-.61-.54s.07-.08.21-.08q1.89,0,8.19-.67a6.26,6.26,0,0,1,.73-.08,5.29,5.29,0,0,0,.13-1.16,3.19,3.19,0,0,0-.08-.92,4.89,4.89,0,0,1,0-.54v-.05c-1,.09-2,.23-3.12.43a6.54,6.54,0,0,1-.78.14,2.75,2.75,0,0,1-1.05-.28c-.36-.14-.54-.26-.54-.35s0-.1.11-.1c2.17-.24,4.07-.47,5.71-.71h.08c0-.76,0-1.44,0-2-.52.05-.93.08-1.24.08a3.78,3.78,0,0,1-2-.33c-.24-.14-.35-.24-.35-.29s.07-.22.21-.22c1.29-.05,2.4-.13,3.32-.24a10.8,10.8,0,0,0-.14-1.46,2,2,0,0,0-.3-.51A.77.77,0,0,1,66,149c-.88.09-1.56.14-2,.14a3.63,3.63,0,0,1-2-.36c-.21-.12-.32-.22-.32-.29a.17.17,0,0,1,.19-.19,60.76,60.76,0,0,0,6.19-.51c1.15-.2,2.19-.42,3.1-.65A1.71,1.71,0,0,1,71.79,147Zm-9.05-3.47a2.8,2.8,0,0,1,.78.13,4.82,4.82,0,0,1,1.7.76,1.59,1.59,0,0,1,.46,1.21,1.27,1.27,0,0,1-.27.73.84.84,0,0,1-.57.32.72.72,0,0,1-.56-.35A10.4,10.4,0,0,1,62.66,144a.72.72,0,0,1-.14-.25C62.54,143.64,62.61,143.57,62.74,143.57Zm8-1.48a4.54,4.54,0,0,1,1.38.37c.7.42,1,.75,1,1s-.14.24-.41.35a4.33,4.33,0,0,0-1,.62,17.06,17.06,0,0,1-3.26,2.29.1.1,0,0,1-.11-.11,12.18,12.18,0,0,0,.81-1.16,8,8,0,0,0,.94-1.69,2,2,0,0,0,.25-.73.56.56,0,0,0-.11-.27,1.08,1.08,0,0,1-.11-.35C70.2,142.19,70.38,142.09,70.74,142.09Z" style="fill:#de1784"/><path d="M90.2,144.56a3.88,3.88,0,0,1,1.43.49c.71.49,1.09.89,1.13,1.21a1.34,1.34,0,0,1-.27.62c-.16.09-.37,1.49-.62,4.2s-.43,4.67-.43,6a4.76,4.76,0,0,0,1,3.33,3.81,3.81,0,0,0,2.48,1.14,10.94,10.94,0,0,0,4.23-.79,20.32,20.32,0,0,0,3.77-2.07,12.88,12.88,0,0,1-4,3.53,8.75,8.75,0,0,1-3.88,1,5.64,5.64,0,0,1-2.83-.86,4.79,4.79,0,0,1-1.78-1.83,7.41,7.41,0,0,1-.81-3.72c0-.9.12-2.63.35-5.2.18-2,.27-3.64.27-4.87a2.63,2.63,0,0,0-.29-1.3,1.23,1.23,0,0,1-.33-.57C89.63,144.68,89.82,144.56,90.2,144.56Z" style="fill:#de1784"/><path d="M120.65,143.11c.38,0,.79.32,1.24,1a3,3,0,0,1,.76,1.59c0,.29-.21.48-.57.59a28.52,28.52,0,0,0-3.74,3.56c-2.13,2.15-3.18,3.42-3.18,3.8s1,1.48,3,3.42a30.16,30.16,0,0,1,3.45,3.8,5.22,5.22,0,0,1,1,2.15,2.42,2.42,0,0,1-.3.94,1.14,1.14,0,0,1-.59.38c-.34-.05-.91-.74-1.7-2.07a24.17,24.17,0,0,0-3.29-4.53c-1.9-2.08-2.85-3.45-2.85-4.09s1-2.22,3.1-4.5c2.22-2.46,3.35-4.12,3.37-5C120.37,143.45,120.47,143.11,120.65,143.11Z" style="fill:#de1784"/><path d="M140.16,147.15a2.51,2.51,0,0,1,1.32.59c.45.33.68.65.68,1a.74.74,0,0,1-.25.49.63.63,0,0,0-.29.4c-.38.85-.74,1.59-1.08,2.24,1.83-.11,3.4-.25,4.71-.43v-1a34.82,34.82,0,0,0-.27-4.53,3.33,3.33,0,0,0-.67-1.8.93.93,0,0,1-.05-.25c0-.29.2-.43.62-.43a4.6,4.6,0,0,1,1.77.41c.65.36,1,.68,1,1a1.08,1.08,0,0,1-.19.43,14.58,14.58,0,0,0-.6,3.74l-.05,2.24a30.24,30.24,0,0,0,3.13-.89,1.19,1.19,0,0,1,.64-.16,4.25,4.25,0,0,1,.92.16q.78.31.78.57a.62.62,0,0,1-.13.37.56.56,0,0,1-.41.27c-1.6.34-3.26.63-5,.86l-.11,4.21c.5-.08,1-.16,1.45-.25a9.74,9.74,0,0,1,1-.08q2.1,0,2.1.84,0,.21-.51.3c-1.44.21-2.8.39-4.1.53l-.13,4.69q4.11-.45,6.65-.86l.51,0a5.26,5.26,0,0,1,2,.49q1.05.65,1.05,1.29c0,.29-.24.43-.73.43s-1.51,0-2.86-.16a16.06,16.06,0,0,0-2.1-.16q-4.85,0-7.81.29a47.43,47.43,0,0,0-5.06.7,3.63,3.63,0,0,1-1,.17,3.82,3.82,0,0,1-1.59-.41c-.48-.27-.73-.44-.73-.53a.2.2,0,0,1,.22-.22c1.31,0,4.12-.23,8.43-.67l1.59-.17.08-4.71c-1.15.12-1.88.19-2.21.19a8.29,8.29,0,0,1-1.8-.19c-.41-.11-.62-.23-.62-.35a.39.39,0,0,1,.32-.41c1.51-.14,3-.31,4.34-.51l.11-4.18a19.19,19.19,0,0,1-2.78.27,3.72,3.72,0,0,1-2.21-.45,11.91,11.91,0,0,1-.64,1.1,13.1,13.1,0,0,1-2.24,2.64c-.36.33-.58.49-.67.49s-.11-.07-.11-.22a43.16,43.16,0,0,0,2.1-4.07,19.75,19.75,0,0,0,.94-3.07,6.27,6.27,0,0,0,.22-1.26l-.11-.65C139.73,147.21,139.87,147.15,140.16,147.15Z" style="fill:#de1784"/><path d="M169.13,157.71c-1.11.56-1.67,1.13-1.67,1.73,0,1,.77,1.7,2.29,2.15a13.55,13.55,0,0,0,3.4.4,5.71,5.71,0,0,1,2.88.46,1.4,1.4,0,0,1,.43.84c0,.7-.87,1.07-2.5,1.13a13.2,13.2,0,0,1-3.72-.75,6.63,6.63,0,0,1-2.64-1.7,3.11,3.11,0,0,1-1-2,1.8,1.8,0,0,1,.54-1.37A5,5,0,0,1,169.13,157.71Zm1.35-14.82c1,0,1.46.37,1.51,1.11a13.58,13.58,0,0,0,.75,2.61,1.32,1.32,0,0,0,.09.3,9.85,9.85,0,0,1,2.2-1.11c.63,0,1,.18,1.06.54-.08.29-.58.7-1.51,1.22l-1.08.59c.2.39.75,1.32,1.67,2.77a3,3,0,0,0,.24.46,7.83,7.83,0,0,1,2.18-1c.49,0,.75.17.79.51s-.77.87-2.13,1.75c.09.09.7.86,1.86,2.29a8.45,8.45,0,0,1,1.45,2.19c0,.7-.36,1.07-1,1.13a3.43,3.43,0,0,1-1.07-.46,21.52,21.52,0,0,0-3.27-.89c1.69-.22,2.54-.48,2.54-.78a7,7,0,0,0-.84-1.21l-1-1.43c-.81.41-1.42.7-1.84.86a7.26,7.26,0,0,1-1.83.4c-1.27-.07-1.91-.26-1.91-.59a16.38,16.38,0,0,0,4.77-1.94,25.14,25.14,0,0,1-2-3.39.6.6,0,0,1-.27.1,13.66,13.66,0,0,1-2.42.6c-1.35-.09-2-.32-2-.7a19.39,19.39,0,0,0,4-1.21c-.31-.63-.62-1.28-.95-1.94A4.16,4.16,0,0,0,169.4,144c-.34-.19-.51-.35-.51-.46C168.89,143.1,169.42,142.89,170.48,142.89Z" style="fill:#de1784"/><path d="M190.06,149a2.62,2.62,0,0,1,.64.21,2.66,2.66,0,0,0,.84.11q.68-.06,5.68-.94a75.57,75.57,0,0,0,7.95-1.68,11.87,11.87,0,0,1,2.53-.59,2.91,2.91,0,0,1,1.43.57c.5.36.79.66.86.92,0,.52-.44.79-1.32.8a9.84,9.84,0,0,0-5.28,1.4,8.3,8.3,0,0,0-2.75,2.94,7.4,7.4,0,0,0-.78,3.29,4.66,4.66,0,0,0,.92,2.88,5.41,5.41,0,0,0,2.37,1.7,2.06,2.06,0,0,1,1.45,2c0,.72-.29,1.07-.89,1.05-1.51,0-2.82-.88-4-2.61a8.39,8.39,0,0,1-1.56-4.69A7.58,7.58,0,0,1,199,153a13.34,13.34,0,0,1,4.17-4.31,53.83,53.83,0,0,0-8,1.86,9.39,9.39,0,0,1-2.94.67,4,4,0,0,1-2-1.13c-.39-.36-.59-.58-.59-.68A.39.39,0,0,1,190.06,149Z" style="fill:#de1784"/><path d="M220.59,144.56a2.61,2.61,0,0,1,1.4.79,2.45,2.45,0,0,1,1,1.56,3.69,3.69,0,0,1-.27.59,12.84,12.84,0,0,0-1.54,4.28,23.25,23.25,0,0,0-.78,4.75,4.61,4.61,0,0,0,.41,2.18,1.3,1.3,0,0,0,.91.73q.27-.06,1.83-3.45a22.25,22.25,0,0,0-.51,4.66,6.38,6.38,0,0,1,.14,1c0,.66-.26,1.06-.78,1.18-.63,0-1.3-.62-2-1.75a9.79,9.79,0,0,1-1.16-5.06,27.35,27.35,0,0,1,.81-5.8c.41-2,.67-3.07.76-3.28a3,3,0,0,0-.3-1.37,1.13,1.13,0,0,1-.19-.54C220.29,144.71,220.39,144.56,220.59,144.56Zm6.17,8a2.85,2.85,0,0,0,.56,0,2.7,2.7,0,0,0,.76.06,10.54,10.54,0,0,0,2.42-.54,15.86,15.86,0,0,1,1.78-.51,8.53,8.53,0,0,0-.43-2.89c-.4-.32-.59-.53-.59-.62s.14-.35.43-.35a4.15,4.15,0,0,1,1.4.44c.75.33,1.13.65,1.13.94,0,.07-.08.19-.24.35a4.82,4.82,0,0,0-.06,1.29v.38l1.94-.57q1.21,0,1.32.54c-.07.4-1,.88-2.83,1.45l-.37.09.16,4.42a11.69,11.69,0,0,1-.22,2.47.42.42,0,0,0,.14.06,8.45,8.45,0,0,0,1.88.94,3.47,3.47,0,0,1,1.3.89,2.38,2.38,0,0,1,.67,1.37c0,.43-.38.68-1,.73a7.42,7.42,0,0,1-2.42-1.45l-1.13-.86a1.71,1.71,0,0,1-.27.29,3.85,3.85,0,0,1-2.8,1.08,4.65,4.65,0,0,1-2.81-.81,2,2,0,0,1-1.15-1.67c0-1.38.93-2.08,2.8-2.08a8.58,8.58,0,0,1,3.15.73c.09-.9.13-1.74.13-2.53v-1.64c0-.7,0-1.18,0-1.43a14.21,14.21,0,0,1-3.07.56,10.13,10.13,0,0,1-1.57-.27c-.8-.19-1.21-.41-1.21-.64S226.61,152.56,226.76,152.56Zm5.2,7.68a7.52,7.52,0,0,0-3.24-1.4q-1.32,0-1.32,1.11a1.12,1.12,0,0,0,.62,1,4.92,4.92,0,0,0,1.94.56,2.12,2.12,0,0,0,1.86-.86A.94.94,0,0,0,232,160.24Zm1.8-14.84a5.81,5.81,0,0,1,1.19.14c.44.08.71.26.78.53s-.7.52-1.89.87a16.28,16.28,0,0,1-3.93.7,6.34,6.34,0,0,1-1.38-.17c-.62-.19-.94-.46-.94-.81a11.38,11.38,0,0,0,4.31-.67A5.92,5.92,0,0,1,233.76,145.4Z" style="fill:#de1784"/><path d="M250.25,144.56a3.82,3.82,0,0,1,1.43.49c.72.49,1.1.89,1.13,1.21a1.16,1.16,0,0,1-.27.62c-.16.09-.36,1.49-.62,4.2s-.43,4.67-.43,6a4.76,4.76,0,0,0,1,3.33,3.83,3.83,0,0,0,2.48,1.14,10.91,10.91,0,0,0,4.23-.79,20.35,20.35,0,0,0,3.78-2.07,12.89,12.89,0,0,1-4,3.53,8.71,8.71,0,0,1-3.88,1,5.67,5.67,0,0,1-2.83-.86,4.87,4.87,0,0,1-1.78-1.83,7.41,7.41,0,0,1-.8-3.72c0-.9.11-2.63.35-5.2.18-2,.27-3.64.27-4.87a2.53,2.53,0,0,0-.3-1.3,1.18,1.18,0,0,1-.32-.57C249.69,144.68,249.87,144.56,250.25,144.56Z" style="fill:#de1784"/><path d="M273.25,148.58a3,3,0,0,1,1.15.57c.56.37.85.68.87.91,0,0-.08.17-.17.4s0,.58,0,1.24q0,4.08,1.35,6c.52.72.91,1.09,1.18,1.11s1.11-1.28,2.8-3.85a14.08,14.08,0,0,0-.78,3.82,2.61,2.61,0,0,0,.22.92,2.45,2.45,0,0,1,.24.86c0,.56-.44.85-1.16.86a3.87,3.87,0,0,1-2.83-1.48,8.46,8.46,0,0,1-1.72-2.85,19,19,0,0,1-.81-4.42,8.41,8.41,0,0,0-.57-2.8c-.28-.29-.43-.51-.43-.65C272.57,148.78,272.8,148.58,273.25,148.58Zm12.63.48a13.77,13.77,0,0,1,2.8,1.22,5.34,5.34,0,0,1,1.89,2.28,6,6,0,0,1,.56,2.59c0,1-.41,1.48-1.13,1.48-.43,0-.72-.59-.88-1.61a10.06,10.06,0,0,0-.84-3A11.5,11.5,0,0,0,285.88,149.06Z" style="fill:#de1784"/><path d="M54.49,67.11a26.8,26.8,0,1,0,26.8,26.8A26.8,26.8,0,0,0,54.49,67.11Zm0,51.66c-10.38,0-18.81-11.28-18.81-25.21s8.43-25.21,18.81-25.21S73.3,79.63,73.3,93.56,64.89,118.77,54.49,118.77Z" style="fill:#de1784"/><path d="M337.92,88.87c-8.74,0-17.57,7.09-19.71,15.83s3.23,15.85,12,15.85,17.59-7.09,19.73-15.85S346.67,88.87,337.92,88.87Zm5.84,15.9c-2,8.22-8,14.87-13.34,14.87s-8.12-6.65-6.11-14.87,8-14.85,13.36-14.85S345.78,96.57,343.76,104.77Z" style="fill:#de1784"/><path d="M18.31,68.57v-.73H0v.73s5.35-.21,5.35,6.5v38c0,6.72-5.35,6.51-5.35,6.51v.73H18.31v-.73S13,119.82,13,113.1v-38C13,68.36,18.31,68.57,18.31,68.57Z" style="fill:#de1784"/><path d="M182,113.1l9.27-38c1.66-6.72-.91-7.23-4.21-7.23h-7l-.2.73s5.42-.21,3.78,6.5l-9.29,38c-1.65,6.72-6.95,6.51-6.95,6.51l-.17.73H185.6l.18-.73S180.36,119.82,182,113.1Zm35.75,9c-10.54-9.82-19.32-27.45-20.26-29s-.76-2.74,1.34-4.7c3-2.73,18.28-15.06,21-17a15.58,15.58,0,0,1,8.64-3.19l.08-.36s-4.3-1.41-12.3,4.64c-6.67,5-23.34,18.32-25.7,20.21s-2.37,2.72-.63,5.32,20.8,37.24,50.17,37.24l.16-.64A54,54,0,0,1,217.77,122.13Z" style="fill:#de1784"/><path d="M230.09,102l-.39,1h20.51c2.55-10.43-3.06-14.13-10.05-14.13-7.66,0-16.49,6.86-18.52,15.12-2.25,9.23,2,16.44,11.74,16.44s14.18-8.88,14.69-10l-.27-.06s-4.67,6.82-13,6.82-8.53-8.51-7.35-13.31,6-14.31,12.59-14.31,5.95,7.09,5,11.08c-.11.49-.36,1.3-2.28,1.3Z" style="fill:#de1784"/><path d="M312,97.63c1.08-4.47.79-8.76-5.1-8.76-5,0-9.43,3.26-12.61,6.44l5-21c1.47-6-.49-6.47-3.45-6.47h-5.24l-.16.66s4.83-.2,3.37,5.81l-9.53,39.59c-1.47,6-6.22,5.82-6.22,5.82l-.14.65H293l.16-.65s-4.84.19-3.37-5.82l4.33-17.75c1.6-1.44,4.83-3.93,8.07-3.93,4.55,0,5.23,3.38,3.22,11.61s-4,16.54-4,16.54h9.27l.13-.59s-3.85,0-2.38-6Z" style="fill:#de1784"/><path d="M278.23,98.64l-.54.13s1.45-9-7.39-9-7.67,7-.91,12.27,9.6,9.92,4.67,14.85-16,4-21.08,1.58l2.1-8.62h.52s.19,9.86,7.15,9.86,11.75-7.4,1.91-14.55c-9.49-6.88-5.07-12.51-1.81-14.34s10.1-3,16.57-.27Z" style="fill:#de1784"/><path d="M130.51,67.84v.58s5.13.23,5.13,3.82v35.92l-32-37.45c-2.34-2.75-4.43-2.87-6.85-2.87H89.33v.58a6.16,6.16,0,0,1,4.53,6V116c0,3.58-5.14,3.8-5.14,3.8v.59h11.87v-.59s-5.13-.22-5.13-3.8V74l39,45.05v0l.36.4a3,3,0,0,0,2.38.91V72.24c0-3.59,5.13-3.82,5.13-3.82v-.58Z" style="fill:#de1784"/><path d="M189.18,47.87c.63-1.21,5.27-7.3,5.27-8.35A.46.46,0,0,0,194,39c-.92,0-1.81.72-3.48,2.56s-1.52,1.84-1.65,1.84-.16-.06-.16-.2a15.28,15.28,0,0,1,1.25-1.54c1.57-1.84,2.89-3.06,4.18-3.06.85,0,1.21.62,1.21,1.64,0,1.32-1.35,3.23-2.07,4.18l.07.07c1.28-1.22,5.06-5.89,6.74-5.89.82,0,1.18.86,1.18,1.58A5.11,5.11,0,0,1,200,43.07c-1.49,2-2.21,3.22-2.21,3.75a.6.6,0,0,0,.53.66c.75,0,2.14-1.19,3.48-2.66,1.68-1.78,1.55-1.88,1.75-1.88s.13.1.13.16a20.4,20.4,0,0,1-2.07,2.4c-1.45,1.49-2.6,2.37-3.36,2.37-1,0-1.44-.92-1.44-2.14,0-2.63,3.55-5.39,3.55-6.31,0-.23-.17-.39-.46-.39-1.58,0-7.54,7.07-8.52,8.65Z" style="fill:#de1784"/><path d="M203.79,47.87c.62-1.21,5.26-7.3,5.26-8.35a.46.46,0,0,0-.49-.49c-.92,0-1.81.72-3.49,2.56s-1.51,1.84-1.65,1.84-.16-.06-.16-.2a15.28,15.28,0,0,1,1.25-1.54c1.58-1.84,2.89-3.06,4.18-3.06.85,0,1.21.62,1.21,1.64,0,1.32-1.34,3.23-2.07,4.18l.07.07c1.28-1.22,5.06-5.89,6.74-5.89.82,0,1.18.86,1.18,1.58a5.11,5.11,0,0,1-1.21,2.86c-1.48,2-2.21,3.22-2.21,3.75a.6.6,0,0,0,.53.66c.76,0,2.14-1.19,3.49-2.66,1.67-1.78,1.54-1.88,1.74-1.88s.13.1.13.16a20.4,20.4,0,0,1-2.07,2.4c-1.45,1.49-2.6,2.37-3.36,2.37-1,0-1.44-.92-1.44-2.14,0-2.63,3.55-5.39,3.55-6.31,0-.23-.16-.39-.46-.39-1.58,0-7.53,7.07-8.52,8.65Z" style="fill:#de1784"/><path d="M223.78,38.63c-3.95,6.58-4.57,7.43-4.57,8.16,0,.56.33.69.62.69,1.06,0,2.57-1.35,3.66-2.47.85-.85,1.94-2.2,2-2.2s.2,0,.2.19a15.19,15.19,0,0,1-2,2.31c-1.62,1.71-3,2.56-3.89,2.56a1.54,1.54,0,0,1-1.57-1.74c0-2.21,2-4.48,3.12-6.15l-.07-.07c-.39.4-1.21,1.25-2.79,3.06-.33.4-.36.43-.46.43s-.13-.1-.13-.2a8.3,8.3,0,0,1,1-1.22c.86-1,2.34-2.53,2.83-3.22Zm2.31-6.51c.46,0,.75.36.75.89a1.23,1.23,0,0,1-1.15,1.24.76.76,0,0,1-.75-.85A1.23,1.23,0,0,1,226.09,32.12Z" style="fill:#de1784"/><path d="M231,39.39c0-.23-.2-.36-.56-.36a4,4,0,0,0-2.27,1.34c-1.81,1.75-2.73,3.06-2.86,3.06s-.13,0-.13-.2.16-.29,1.81-2.13,2.79-2.47,3.52-2.47c1.05,0,1.34.86,1.34,1.71,0,2.33-3,4.48-3,6.25,0,.59.29.89.82.89,2.43,0,5.89-3.62,5.89-7,0-1.18.39-1.84,1-1.84s.75.4.75,1.12c0,1.28-2.1,4.6-3.09,5.39l.07.07a5,5,0,0,0,2.76-1.12,15.54,15.54,0,0,0,1.12-1.15.18.18,0,0,1,.2.16A5,5,0,0,1,237,44.58a5.59,5.59,0,0,1-3,1c-.43,0-2.27,2.27-4.38,2.27-1.25,0-1.87-.92-1.87-2.33C227.73,42.94,231,40.7,231,39.39Z" style="fill:#de1784"/><path d="M239.77,44.62a5.69,5.69,0,0,0-.13,1.08c0,1.32.36,1.74,1.38,1.78s2.59-.63,4.6-2.63c1.28-1.32,1.61-1.91,1.74-1.91s.17.06.17.2a15.61,15.61,0,0,1-2.27,2.53c-1.65,1.55-2.93,2.17-4.47,2.2-1.81,0-2.6-1.81-2.6-3.52a6.77,6.77,0,0,1,.1-1c0-.07,0-.07,0-.07s-.06.1-.1.1a.33.33,0,0,1-.16-.2,9.64,9.64,0,0,1,1.22-1.44c1.81-1.84,3.91-3.16,5.69-3.16a1.54,1.54,0,0,1,1.64,1.61C246.54,42.71,241.71,44.22,239.77,44.62Zm.13-.4c2.17-.26,5.66-2.17,5.66-4.54,0-.46-.23-.65-.66-.65C243.15,39,240.36,42.35,239.9,44.22Z" style="fill:#de1784"/><path d="M247.76,47.87c3.32-5.42,5.06-7.47,5.06-8.38a.49.49,0,0,0-.55-.46c-.46,0-1.25.36-2.57,1.74-2,2.07-2.3,2.66-2.44,2.66a.15.15,0,0,1-.16-.16A19.51,19.51,0,0,1,249,41c1.42-1.55,2.44-2.34,3.36-2.34a1.41,1.41,0,0,1,1.28,1.58c0,1.31-1.41,3.58-2.07,4.47l.06.07c1.75-2.08,3.36-3.16,3.65-4s1-2.07,2.17-2.07c.56,0,.79.17.79.53,0,1.31-3.68,2.3-3.68,4.6a1.08,1.08,0,0,0,1.09,1.12,2.12,2.12,0,0,0,1.48-.66c.72-.72,1-1.25,1.11-1.25a.19.19,0,0,1,.2.17,9,9,0,0,1-.82,1,2.67,2.67,0,0,1-2,1,1.37,1.37,0,0,1-1.44-1.29,2.87,2.87,0,0,1,.65-1.87L254.8,42a48.8,48.8,0,0,0-5,5.7Z" style="fill:#de1784"/><path d="M262.36,46.1l.07.06a12.16,12.16,0,0,0,2.37-2.3c.69-.76.69-.92.82-.92s.16.06.16.2a12.85,12.85,0,0,1-1.34,1.64c-1.78,2-3.33,3.09-5.17,3.09a2,2,0,0,1-1.48-.36,1.74,1.74,0,0,1-.53-1.12c0-.59.23-1,.83-1,.36,0,.69.23.69.53,0,.69-.46.42-.46,1,0,.29.16.49.56.49,1.54,0,3.32-3.65,3.32-5.46a10.65,10.65,0,0,1,.19-3.13l-.06-.06c-.39.23-3,3.38-3.82,4.31-.13.16-.19.26-.29.26a.12.12,0,0,1-.13-.13c0-.23.52-.69,1.44-1.84a36.42,36.42,0,0,1,2.86-3.13c.07,0,.37-1,1.09-1,.39,0,.56.2.56.5,0,.62-.72.82-1.31,1a2.84,2.84,0,0,0-.14.79c0,2.43.69,3.15.69,4.54a2.92,2.92,0,0,1-.92,2Z" style="fill:#de1784"/><path d="M277.39,38.8c-.92,1.15-4.73,7-4.73,8.22,0,.26.13.46.56.46,1,0,2.76-1.75,4.67-4,.39-.46.42-.53.49-.53a.21.21,0,0,1,.2.2c0,.06-1.06,1.25-1.81,2.07-1.52,1.61-2.77,2.63-3.65,2.63s-1.45-.46-1.45-2.3c0-.23,0-.43,0-.59-1,1-2.83,2.89-4.08,2.89-1.67,0-2.07-1.51-2.07-3a9.06,9.06,0,0,1,.16-1.55c-.06,0-.13.1-.19.1s-.13-.1-.13-.17.1-.16.52-.72c1.78-2.17,4.44-3.88,6.71-3.88,1,0,1.42.72,1.42,1.64a3.3,3.3,0,0,1-.1.89l.06.07c1.19-1.91,1.12-2.34,1.81-2.37Zm-9.77,8.68c1.91,0,6-4.81,6-7.24,0-.69-.33-1.21-1-1.21-2.66,0-5.75,5-5.75,7.4C266.87,47.05,267.1,47.48,267.62,47.48Z" style="fill:#de1784"/><path d="M278.81,47.87c3.32-5.42,5.06-7.47,5.06-8.38,0-.27-.23-.46-.56-.46s-1.25.36-2.56,1.74c-2,2.07-2.31,2.66-2.44,2.66a.15.15,0,0,1-.16-.16,19.51,19.51,0,0,1,1.94-2.3c1.41-1.55,2.43-2.34,3.35-2.34a1.41,1.41,0,0,1,1.29,1.58c0,1.31-1.42,3.58-2.08,4.47l.07.07c1.74-2.08,3.35-3.16,3.65-4s1-2.07,2.17-2.07c.56,0,.79.17.79.53,0,1.31-3.68,2.3-3.68,4.6a1.08,1.08,0,0,0,1.08,1.12,2.08,2.08,0,0,0,1.48-.66c.73-.72,1-1.25,1.12-1.25a.19.19,0,0,1,.2.17,9,9,0,0,1-.82,1,2.69,2.69,0,0,1-2,1,1.38,1.38,0,0,1-1.45-1.29,2.83,2.83,0,0,1,.66-1.87l-.07-.07a47.84,47.84,0,0,0-5,5.7Z" style="fill:#de1784"/><path d="M303.61,38.63l-5.86,9.6.07.07a17.05,17.05,0,0,0,5.39-4.54c.63-.72.63-.79.79-.79s.13.07.13.17a17.25,17.25,0,0,1-1.41,1.71,16.78,16.78,0,0,1-5.33,4.08c-3.39,6-6.55,9.3-8.52,9.3a1.57,1.57,0,0,1-1.61-1.77c0-2.44,3.78-4.93,9.11-8.16l2.86-5.53-.07-.06c-.85,1.21-4.4,5.1-6,5.1-.83,0-1.42-1-1.42-1.91,0-2.4,3.16-5,3.16-6.45,0-.26-.13-.42-.53-.42-.82,0-1.81.82-3.06,2.13-1.87,2-1.87,2.27-2.07,2.27s-.13-.06-.13-.16.1-.23,1.61-2c1.87-2.14,3-2.67,3.72-2.67,1,0,1.45.92,1.45,1.84,0,2.34-3.16,5.2-3.16,6.45,0,.36.1.49.46.49,2,0,7.27-6.44,8.32-8.58ZM296,48.93c-6,3.88-8.06,5.92-8.06,7.66,0,.86.43,1.25,1,1.25,1.64,0,3.94-2.37,7.13-9V49Z" style="fill:#de1784"/><path d="M293.36,20.29a6.45,6.45,0,0,0-5.19-.8,3.81,3.81,0,0,0-2.45-3l-.23.39c2.39,1.13,2.07,2.67,2.07,2.67-1.17.2-2.76,1.71-2.26,2.44s1.44.26,2.24-.45a2.11,2.11,0,0,0,.71-1.63c2.34-.52,8.59.94,6.7,6.86-2.07,6.5-11.07,7.33-18,7S253.28,29.5,246.6,28c-14.3-3.3-38.72-8.72-52.95-8.81-26.15-.16-41.29,8.13-42,21-.27,4.89,4.07,7.89,8.75,7.89,7.79,0,13.42-6.68,18.25-11.64a2.63,2.63,0,0,1,.43,1.64,7.11,7.11,0,0,1-.13,1.45c-.92.79-3,2.66-3,3.95a.6.6,0,0,0,.63.56c1.31,0,2.13-3,2.73-4A5.36,5.36,0,0,1,182,38.5a13.93,13.93,0,0,0-1.71,5.69c0,2.14,1,3.88,3.29,3.88,3.09,0,5.49-3.52,5.49-6.45a3.87,3.87,0,0,0-4-4l-.49,0c1.15-2.59,7.33-11.77,7.33-12.43a.75.75,0,0,0-.85-.86c-1,0-3.46,2.37-11.91,10.89a3.62,3.62,0,0,0-2.57-1.05,3.39,3.39,0,0,0-3.38,2.73c0,.1.06.16.19.16s.69-2.36,2.8-2.36a2.67,2.67,0,0,1,2.27,1.21c-5.4,5.59-11,11.75-17.83,11.75-4.67,0-7.27-3-7.27-6.78a10.92,10.92,0,0,1,.62-3.61h0c2-6.39,7.31-10.49,10.4-12.09,5.31-2.77,12.58-4.48,22.62-5.27s21.46,1.2,28.8,2.58,27.12,6,34.11,7.46S272.61,35,282.39,34.3c8.14-.6,11.95-3.81,13.08-7.1A5.69,5.69,0,0,0,293.36,20.29ZM184.71,38.14c1.88,0,3,1.74,3,4-.07,2.7-1.87,5.5-4.18,5.5-1.22,0-1.64-.79-1.64-2.14,0-2.24,1.31-5.3,2.27-7.34A3.61,3.61,0,0,1,184.71,38.14Zm5.92-13.26c.23,0,.3.2.3.4,0,.39-6.25,8.32-8.65,12.59a11.12,11.12,0,0,0-2.73,1.29,7.37,7.37,0,0,0,.26-1.85,3.52,3.52,0,0,0-.43-1.64C186.29,28.57,190.14,24.88,190.63,24.88Z" style="fill:#de1784"/><path d="M61.76,49.65,70.5,36.26l-20.23.06,36-31.15H90L53.18,34.87V35l18,0L84.53,12.79l7.9-1c-5.15,7.49-9.8,15.41-14.67,23.11l8.48,0-.56,1.29-8.62,0c-2.47,4.24-5.15,8.49-7.47,12.95Z" style="fill:#de1784"/><path d="M122.94,37.67l.25-.64h2.75l2.69-4.51,3.86-.14-3,4.65h4.54l-.32.64h-4.61c-4.29,7.09-5.76,9.23-5.76,10.63a1,1,0,0,0,1,1c1.19,0,3.3-1.29,5.51-3.44a57.06,57.06,0,0,0,5-5.79l.21.18a54,54,0,0,1-4.83,5.65c-2.22,2.22-4.72,4-6.9,4-1.5,0-2.86-.61-2.86-2.33,0-2.46,2.25-5,5.11-10Z" style="fill:#de1784"/><path d="M128.16,49.62l15-24.71,3.9-.19L135.17,43.47l.07.07c2.11-2.5,5.33-7.08,9-7.08a2.17,2.17,0,0,1,2.44,2.36c0,2.61-5,7.33-5,9.66,0,.61.28.86.75.86,2.15,0,8.12-6.91,9.69-9.13l.22.22a69.77,69.77,0,0,1-5,5.83c-2.58,2.64-4.19,3.72-6.09,3.72a2.3,2.3,0,0,1-2.46-2.47c0-3.29,5-7,5-9.16a1,1,0,0,0-.94-1c-3.07,0-9.3,8.65-11.08,12.2Z" style="fill:#de1784"/><path d="M107.22,25.49A13.79,13.79,0,0,0,99,28.07l-.15-.15,7.59-12.7a11.75,11.75,0,0,0,5.59,1.33c4.79,0,8.87-3.14,12.09-6.29l-.29-.43A12.05,12.05,0,0,1,116.91,12a12.73,12.73,0,0,1-8.15-3L96.3,30.19l.6.52c2-1.94,4.86-3.61,7.52-3.72,4-.09,7.41,2.65,8,7.49,1,7.46-2.79,16.15-9.82,16.45-3.85.16-9.26-2.19-9.9-6.8-.42-3,.48-6.07,3.6-6.19a7.37,7.37,0,0,1,3,.52l.14-.43c-1.75-1.57-4-3.06-6.34-3-4.11.16-6.83,3.11-6.21,7.58,1,7.37,9.86,9.45,15.5,9.21,8.28-.35,17.84-6.43,16.44-17.26C118.15,29.07,112.85,25.25,107.22,25.49Z" style="fill:#de1784"/><path d="M134.58,1.57c-.28-1.27-1.44-2.14-4-1.12a9.41,9.41,0,0,0-2.54,2,2,2,0,0,0-.71-1.26,1.57,1.57,0,0,0-1.57-.07,3,3,0,0,1,1,1.63,4.9,4.9,0,0,1-.46,2.06c-2.07,3.54-6.42,4.8-9.58,4.52a13.06,13.06,0,0,1-6.31-2.46l-.32.37h0a13.53,13.53,0,0,0,6.09,2.53c2.6.56,7.31-.71,10.28-3.7a5.8,5.8,0,0,1,2.71-1.27,3.61,3.61,0,0,1,1.72.24,2.17,2.17,0,0,0-.49-1.32,2.55,2.55,0,0,0-1.24-.64A3.52,3.52,0,0,1,131.26.66c2.2-.69,2.5.44,2.5.44a.76.76,0,0,0-.46.78.73.73,0,0,0,.7.54A.71.71,0,0,0,134.58,1.57Z" style="fill:#de1784"/></g></g></svg>